<?xml version="1.0" encoding="iso-8859-1"?>
<!-- Uploaded to: SVG Repo, www.svgrepo.com, Generator: SVG Repo Mixer Tools -->
<svg height="800px" width="800px" version="1.1" id="Layer_1" xmlns="http://www.w3.org/2000/svg" xmlns:xlink="http://www.w3.org/1999/xlink" 
	 viewBox="0 0 512 512" xml:space="preserve">
<path style="fill:#F0C838;" d="M470.948,126.103c-15.942-17.706-39.963-23.799-61.442-17.743
	c-0.876-22.301-14.1-43.265-35.868-52.957c-21.766-9.69-46.191-5.493-63.35,8.776c-9.872-20.014-30.478-33.784-54.303-33.784
	c-23.826,0-44.432,13.769-54.303,33.784c-17.159-14.268-41.584-18.467-63.35-8.776c-21.768,9.691-34.992,30.655-35.868,52.957
	c-21.48-6.056-45.499,0.037-61.442,17.743c-15.942,17.706-19.491,42.231-11.223,62.96H482.17
	C490.438,168.334,486.89,143.809,470.948,126.103z"/>
<path style="fill:#E79C25;" d="M470.948,126.103c-15.942-17.706-39.963-23.799-61.442-17.743
	c-0.876-22.301-14.1-43.265-35.868-52.957c-21.766-9.69-46.191-5.493-63.35,8.776c-9.872-20.014-30.478-33.784-54.303-33.784
	c0,45.255,0,126.571,0,158.668H482.17C490.438,168.334,486.89,143.809,470.948,126.103z"/>
<path style="fill:#D7D7D7;" d="M341.833,481.606H170.167v-88.801h171.667V481.606z"/>
<path style="fill:#B0B0B0;" d="M341.833,481.606H256v-88.801h85.833V481.606z"/>
<path style="fill:#F7F7F8;" d="M341.971,426.197H170.029l-2.803-1.036c-48.574-17.96-90.142-49.875-120.213-92.295
	C16.256,289.478,0,238.341,0,184.985v-16.696h512v16.696c0,53.357-16.256,104.493-47.013,147.88
	c-30.071,42.42-71.639,74.336-120.213,92.295L341.971,426.197z"/>
<path style="fill:#D7D7D7;" d="M341.971,426.197h-85.987L256,168.289h256v16.696c0,53.357-16.256,104.493-47.013,147.88
	c-30.071,42.42-71.639,74.336-120.213,92.295L341.971,426.197z"/>
</svg>