<?xml version="1.0" encoding="iso-8859-1"?>
<!-- Uploaded to: SVG Repo, www.svgrepo.com, Generator: SVG Repo Mixer Tools -->
<svg height="800px" width="800px" version="1.1" id="Capa_1" xmlns="http://www.w3.org/2000/svg" xmlns:xlink="http://www.w3.org/1999/xlink" 
	 viewBox="0 0 47.184 47.184" xml:space="preserve">
<g>
	<g>
		<path style="fill:#010002;" d="M35.956,26.808c-0.07-0.144-0.135-0.293-0.211-0.434c-0.095-0.176-0.232-0.312-0.396-0.4
			c0-0.172-0.049-0.344-0.143-0.502c-0.007-0.012-0.01-0.026-0.017-0.038c-0.087-0.135-0.185-0.262-0.276-0.393
			c-0.099-0.142-0.195-0.287-0.298-0.424L46.608,9.966c0.695-0.884,0.771-1.982,0.173-2.451c-0.183-0.143-0.408-0.211-0.651-0.211
			c-0.554,0-1.207,0.351-1.688,0.966L33.319,23.136c-0.072-0.072-0.139-0.149-0.212-0.219c-0.05-0.047-0.107-0.08-0.162-0.115
			c-0.106-0.067-0.22-0.12-0.339-0.143c-0.018-0.05-0.047-0.096-0.071-0.143c-0.062-0.118-0.138-0.229-0.248-0.318
			c-0.282-0.23-0.573-0.448-0.875-0.655c-0.165-0.113-0.353-0.17-0.537-0.176c-0.086-0.164-0.217-0.306-0.389-0.405
			c-0.315-0.181-0.64-0.35-0.968-0.505c-0.18-0.086-0.375-0.112-0.559-0.088c-0.109-0.149-0.263-0.27-0.449-0.341
			c-0.34-0.128-0.687-0.243-1.039-0.345c-0.193-0.055-0.387-0.049-0.563,0.003c-0.134-0.129-0.304-0.223-0.499-0.263
			c-0.355-0.071-0.716-0.13-1.079-0.173c-0.197-0.022-0.389,0.014-0.555,0.094c-0.151-0.107-0.335-0.173-0.534-0.181
			c-0.365-0.015-0.73-0.016-1.094-0.001c-0.198,0.008-0.38,0.073-0.53,0.178c-0.166-0.08-0.361-0.118-0.556-0.094
			c-0.364,0.043-0.725,0.102-1.078,0.172c-0.196,0.039-0.368,0.133-0.501,0.263c-0.178-0.053-0.371-0.058-0.564-0.003
			c-0.352,0.101-0.697,0.216-1.035,0.342c-0.187,0.069-0.341,0.189-0.451,0.339c-0.186-0.023-0.379,0.001-0.561,0.087
			c-0.33,0.155-0.653,0.324-0.968,0.504c-0.174,0.099-0.306,0.242-0.391,0.406c-0.172,0.005-0.344,0.059-0.499,0.156l0.5,0.87
			l0.499,0.868c0.031-0.022,0.06-0.046,0.091-0.068c0.142-0.097,0.25-0.223,0.324-0.364c0.159-0.005,0.32-0.047,0.468-0.132
			c0.27-0.154,0.546-0.298,0.829-0.432c0.153-0.072,0.28-0.179,0.375-0.307c0.158,0.022,0.323,0.005,0.484-0.055
			c0.289-0.108,0.586-0.206,0.887-0.293c0.164-0.047,0.306-0.132,0.42-0.243c0.152,0.045,0.318,0.058,0.483,0.022
			c0.303-0.061,0.61-0.109,0.922-0.146c0.17-0.021,0.323-0.081,0.454-0.172c0.146,0.07,0.32,0.111,0.479,0.1
			c0.309-0.012,0.621-0.011,0.932,0.001c0.17,0.016,0.333-0.029,0.477-0.099c0.131,0.092,0.286,0.153,0.456,0.174
			c0.309,0.037,0.617,0.086,0.919,0.147c0.168,0.035,0.334,0.023,0.485-0.022c0.114,0.11,0.257,0.196,0.421,0.243
			c0.301,0.086,0.594,0.184,0.883,0.294c0.162,0.061,0.326,0.074,0.484,0.057c0.096,0.128,0.223,0.234,0.375,0.308
			c0.281,0.134,0.559,0.277,0.826,0.433c0.148,0.085,0.311,0.128,0.47,0.133c0.073,0.141,0.183,0.266,0.321,0.362
			c0.256,0.176,0.505,0.362,0.746,0.558c0.13,0.106,0.279,0.173,0.434,0.204c0.004,0.001,0.006,0.002,0.01,0.003
			c0.049,0.151,0.137,0.292,0.26,0.41c0.009,0.009,0.017,0.018,0.025,0.027c0.122,0.117,0.236,0.241,0.354,0.363
			c0.09,0.094,0.184,0.182,0.271,0.279c0.113,0.128,0.254,0.22,0.404,0.273c0.025,0.158,0.089,0.312,0.191,0.448
			c0.115,0.151,0.221,0.311,0.328,0.467c0.069,0.101,0.144,0.197,0.209,0.299c0.004,0.006,0.011,0.008,0.015,0.013
			c0.026,0.038,0.065,0.056,0.095,0.089c0.076,0.085,0.148,0.176,0.245,0.229c0,0.076,0.01,0.152,0.028,0.228
			c0.02,0.083,0.049,0.166,0.091,0.245c0.146,0.271,0.282,0.552,0.407,0.837c0.068,0.157,0.174,0.288,0.3,0.388
			c-0.024,0.158-0.013,0.325,0.045,0.487c0.103,0.292,0.192,0.589,0.271,0.892c0.045,0.164,0.127,0.31,0.234,0.426
			c-0.05,0.152-0.062,0.316-0.033,0.482c0.055,0.307,0.098,0.615,0.129,0.93c0.016,0.17,0.086,0.318,0.176,0.451
			c-0.02,0.039-0.047,0.072-0.062,0.113c-0.053,0.025-0.096,0.064-0.144,0.098c-0.154-0.068-0.32-0.112-0.504-0.088
			c-0.314,0.028-0.635,0.059-0.961,0.084c-0.176,0.016-0.336,0.074-0.473,0.166c-0.148-0.07-0.314-0.104-0.492-0.09l-0.967,0.066
			c-0.175,0.012-0.336,0.066-0.475,0.154c-0.147-0.07-0.32-0.105-0.492-0.098l-0.967,0.051c-0.176,0.008-0.34,0.062-0.479,0.148
			c-0.082-0.041-0.171-0.068-0.262-0.088c-0.073-0.014-0.147-0.024-0.224-0.018l-0.549,0.019l-0.425,0.015
			c-0.175,0.006-0.338,0.057-0.479,0.141c-0.12-0.064-0.248-0.09-0.4-0.104c-0.029-0.003-0.054-0.009-0.087-0.01l-0.66,0.014
			l-0.312,0.007c-0.176,0.004-0.34,0.053-0.482,0.135c-0.145-0.078-0.314-0.102-0.486-0.119l-0.969,0.007
			c-0.177,0.001-0.343,0.047-0.486,0.128c-0.143-0.08-0.308-0.126-0.482-0.127l-0.974-0.008c-0.181-0.008-0.343,0.044-0.486,0.121
			c-0.142-0.082-0.307-0.131-0.482-0.133l-0.97-0.021c-0.197,0.007-0.344,0.037-0.489,0.113c-0.142-0.084-0.306-0.135-0.482-0.141
			l-0.967-0.033c-0.168-0.017-0.343,0.032-0.49,0.106c-0.14-0.086-0.302-0.14-0.478-0.147l-0.969-0.049
			c-0.176-0.018-0.343,0.026-0.491,0.098c-0.139-0.088-0.302-0.145-0.479-0.153c-0.325-0.021-0.646-0.042-0.961-0.063
			c-0.181-0.015-0.343,0.02-0.491,0.088c-0.137-0.092-0.299-0.15-0.474-0.166l-0.964-0.084c-0.177-0.017-0.339,0.026-0.489,0.094
			c-0.048-0.034-0.092-0.073-0.146-0.1c-0.017-0.047-0.048-0.086-0.072-0.129c0.095-0.136,0.17-0.287,0.188-0.466
			c0.031-0.313,0.074-0.622,0.13-0.927c0.03-0.168,0.017-0.333-0.032-0.484c0.109-0.117,0.192-0.263,0.236-0.43
			c0.079-0.303,0.17-0.6,0.272-0.891c0.057-0.162,0.069-0.328,0.045-0.484c0.126-0.1,0.23-0.229,0.3-0.387
			c0.125-0.284,0.261-0.563,0.408-0.838c0.081-0.148,0.12-0.311,0.12-0.469c0.141-0.078,0.266-0.189,0.358-0.334
			c0.001-0.003,0.003-0.005,0.004-0.007c0.091-0.141,0.192-0.272,0.289-0.409l-0.579-0.914l-0.545-0.859
			c-0.081,0.057-0.156,0.126-0.22,0.208c-0.221,0.289-0.431,0.587-0.629,0.894c-0.107,0.167-0.159,0.354-0.16,0.538
			c-0.163,0.09-0.304,0.227-0.398,0.402c-0.071,0.131-0.13,0.269-0.197,0.402C4.583,27.614,0,29.167,0,30.945
			c0,2.691,10.521,13.91,23.5,13.91S47,33.636,47,30.945C47.003,29.2,42.589,27.672,35.956,26.808z M10.446,29.961
			c-0.127,0.137-0.217,0.309-0.253,0.506c-0.063,0.354-0.114,0.717-0.151,1.08c-0.022,0.213,0.041,0.407,0.138,0.58
			c-0.114,0.158-0.197,0.34-0.201,0.551l-0.001,0.184c0,0.076,0.005,0.152,0.01,0.227c-4.317-0.543-7.054-1.339-7.054-2.228
			c0-0.937,3.034-1.771,7.758-2.313c-0.094,0.282-0.186,0.565-0.262,0.854C10.38,29.592,10.389,29.786,10.446,29.961z
			 M37.384,33.041c0.004-0.06,0.008-0.119,0.008-0.181l-0.002-0.197c-0.002-0.203-0.082-0.38-0.188-0.537
			c0.089-0.168,0.147-0.353,0.127-0.556c-0.034-0.364-0.086-0.727-0.149-1.081c-0.033-0.197-0.123-0.37-0.25-0.506
			c0.058-0.177,0.065-0.37,0.017-0.562c-0.073-0.281-0.163-0.556-0.254-0.83c4.506,0.543,7.385,1.356,7.385,2.269
			C44.076,31.724,41.49,32.5,37.384,33.041z"/>
		<path style="fill:#010002;" d="M22.9,24.026c-0.412,0.004-0.745,0.182-0.745,0.383c0.001,0.201,0.334,0.351,0.745,0.347
			c0.411-0.004,0.745-0.16,0.745-0.361C23.646,24.193,23.313,24.022,22.9,24.026z"/>
		<path style="fill:#010002;" d="M25.719,30.931c0.402,0.014,0.729-0.131,0.731-0.328s-0.323-0.375-0.728-0.391
			c-0.402-0.018-0.731,0.135-0.732,0.336S25.316,30.919,25.719,30.931z"/>
		<path style="fill:#010002;" d="M20.516,25.172c-0.409,0.04-0.737,0.241-0.735,0.438c0.002,0.196,0.333,0.317,0.741,0.28
			c0.408-0.035,0.739-0.219,0.737-0.418C21.257,25.273,20.924,25.133,20.516,25.172z"/>
		<path style="fill:#010002;" d="M26.123,27.707c0.002-0.197-0.325-0.386-0.733-0.412c-0.406-0.025-0.737,0.124-0.738,0.325
			c-0.001,0.201,0.328,0.375,0.734,0.397C25.791,28.04,26.121,27.905,26.123,27.707z"/>
		<path style="fill:#010002;" d="M27.46,26.929c0.406,0.023,0.736-0.111,0.738-0.31s-0.326-0.386-0.732-0.412
			c-0.408-0.026-0.738,0.124-0.74,0.325C26.725,26.733,27.053,26.907,27.46,26.929z"/>
		<path style="fill:#010002;" d="M22.182,30.168c-0.002,0.174,0.319,0.33,0.717,0.352c0.397,0.021,0.72-0.094,0.721-0.256
			c0.001-0.164-0.319-0.323-0.715-0.355C22.508,29.876,22.184,29.993,22.182,30.168z"/>
		<path style="fill:#010002;" d="M28.85,28.275c-0.188,0.033-0.32,0.113-0.322,0.229c-0.001,0.045,0.02,0.09,0.052,0.133
			c0.076,0.102,0.236,0.192,0.435,0.252c0.074,0.022,0.15,0.043,0.232,0.055c0.399,0.057,0.723-0.039,0.725-0.221
			c0.002-0.151-0.225-0.314-0.53-0.403c-0.06-0.019-0.119-0.037-0.185-0.048C29.102,28.247,28.968,28.254,28.85,28.275z"/>
		<path style="fill:#010002;" d="M32.77,28.454c-0.127-0.081-0.305-0.147-0.499-0.18c-0.005-0.001-0.007-0.002-0.011-0.003
			c-0.398-0.064-0.726,0.044-0.729,0.232c-0.001,0.113,0.12,0.223,0.297,0.309c0.12,0.059,0.262,0.107,0.422,0.131
			c0.04,0.006,0.074,0.003,0.113,0.006c0.343,0.023,0.609-0.062,0.613-0.227C32.977,28.633,32.899,28.536,32.77,28.454z"/>
		<path style="fill:#010002;" d="M20.256,23.287c-0.41,0.053-0.739,0.267-0.737,0.463c0.002,0.196,0.334,0.304,0.743,0.255
			c0.409-0.049,0.742-0.239,0.74-0.439C21,23.366,20.667,23.234,20.256,23.287z"/>
		<path style="fill:#010002;" d="M20.537,27.875c0.002,0.199,0.331,0.338,0.738,0.32c0.406-0.018,0.735-0.189,0.735-0.391
			c-0.001-0.201-0.332-0.354-0.739-0.334C20.864,27.49,20.535,27.676,20.537,27.875z"/>
		<path style="fill:#010002;" d="M31.813,30.426c-0.002,0.168,0.316,0.351,0.709,0.412c0.392,0.062,0.708-0.011,0.708-0.168
			c0-0.156-0.314-0.349-0.705-0.422C32.136,30.174,31.815,30.256,31.813,30.426z"/>
		<path style="fill:#010002;" d="M28.333,31.062c-0.002,0.187,0.309,0.354,0.696,0.387c0.008,0.001,0.015,0.003,0.022,0.004
			c0.399,0.027,0.725-0.096,0.728-0.279c0.001-0.107-0.118-0.211-0.294-0.287c-0.12-0.053-0.262-0.095-0.424-0.108
			C28.663,30.744,28.337,30.873,28.333,31.062z"/>
		<path style="fill:#010002;" d="M14.63,28.433c-0.39,0.096-0.703,0.313-0.702,0.479c0.001,0.164,0.317,0.223,0.708,0.139
			s0.709-0.289,0.707-0.465C15.341,28.411,15.021,28.34,14.63,28.433z"/>
		<path style="fill:#010002;" d="M22.196,22.02c-0.403,0.019-0.729,0.205-0.728,0.4s0.327,0.327,0.73,0.31
			c0.402-0.017,0.729-0.179,0.729-0.375C22.926,22.158,22.599,22.002,22.196,22.02z"/>
		<path style="fill:#010002;" d="M30.284,26.359c-0.08-0.039-0.168-0.071-0.263-0.098c-0.013-0.002-0.023-0.008-0.035-0.012
			c-0.078-0.02-0.149-0.027-0.22-0.033c-0.109-0.009-0.207-0.006-0.285,0.015c-0.121,0.03-0.199,0.093-0.2,0.18
			c-0.001,0.078,0.065,0.16,0.162,0.237c0.112,0.089,0.272,0.166,0.461,0.219c0.024,0.007,0.047,0.018,0.073,0.023
			c0.212,0.049,0.395,0.049,0.522,0.014c0.105-0.029,0.175-0.08,0.177-0.157c0-0.016-0.016-0.034-0.021-0.052
			C30.623,26.581,30.486,26.456,30.284,26.359z"/>
		<path style="fill:#010002;" d="M29.98,24.462c-0.386-0.097-0.702-0.02-0.705,0.161c-0.002,0.181,0.312,0.391,0.696,0.479
			c0.386,0.089,0.697,0.029,0.699-0.143C30.673,24.787,30.365,24.559,29.98,24.462z"/>
		<path style="fill:#010002;" d="M26.11,29.192c-0.002,0.192,0.316,0.366,0.708,0.393c0.181,0.013,0.342-0.01,0.468-0.054
			c0.146-0.051,0.244-0.131,0.245-0.232c0-0.021-0.017-0.043-0.024-0.062c-0.06-0.164-0.334-0.312-0.683-0.342
			C26.432,28.864,26.112,29,26.11,29.192z"/>
		<path style="fill:#010002;" d="M23.935,26.777c0-0.196-0.322-0.363-0.72-0.364s-0.721,0.165-0.72,0.361
			c0,0.196,0.323,0.348,0.72,0.349S23.935,26.972,23.935,26.777z"/>
		<path style="fill:#010002;" d="M14.634,30.574c-0.384,0.039-0.694,0.197-0.694,0.35s0.312,0.252,0.697,0.225
			c0.385-0.028,0.697-0.182,0.696-0.346C15.331,30.638,15.018,30.535,14.634,30.574z"/>
		<path style="fill:#010002;" d="M25.407,24.787c-0.399-0.034-0.723,0.106-0.724,0.301s0.322,0.37,0.72,0.401
			c0.398,0.032,0.721-0.09,0.723-0.282C26.126,25.015,25.805,24.821,25.407,24.787z"/>
		<path style="fill:#010002;" d="M25.212,22.101c-0.403-0.04-0.729,0.099-0.73,0.294s0.325,0.372,0.726,0.41
			s0.726-0.076,0.728-0.269S25.613,22.141,25.212,22.101z"/>
		<path style="fill:#010002;" d="M27.46,24.746c0.396,0.068,0.715-0.018,0.717-0.203c0.002-0.186-0.313-0.407-0.709-0.479
			c-0.395-0.072-0.719,0.034-0.721,0.225S27.065,24.679,27.46,24.746z"/>
		<path style="fill:#010002;" d="M13.7,23.496l0.551,0.868l0.532,0.839l0.734,1.157l2.233,3.521c0.508,0.84,0.949,1.545,1.472,1.545
			c0.117,0,0.239-0.035,0.366-0.113c0.696-0.42,0.208-1.264-0.414-2.293l-0.347-0.604l-0.292-0.508l-0.965-1.679l-1.374-2.39
			l-0.49-0.853l-0.505-0.878L4.551,3.581C4.08,2.801,3.352,2.328,2.724,2.329c-0.2,0-0.391,0.048-0.559,0.15
			c-0.696,0.42-0.756,1.596-0.134,2.625L13.7,23.496z"/>
	</g>
</g>
</svg>