<?xml version="1.0" ?><!-- Uploaded to: SVG Repo, www.svgrepo.com, Generator: SVG Repo Mixer Tools -->
<svg fill="#000000" width="800px" height="800px" viewBox="0 0 64 64" data-name="Layer 1" id="Layer_1" xmlns="http://www.w3.org/2000/svg"><path d="M56.3027,13.1909l-.0009,0A53.7155,53.7155,0,0,0,46.097,11.2449l-.0008,0-.0031,0-.0023,0-.0005,0a53.2078,53.2078,0,0,0-10.1806,0l-.0005,0-.0023,0-.0031,0-.0008,0a53.7,53.7,0,0,0-10.2057,1.946c-3.76.994-6.0161,5.2379-3.87,8.5855A6.4523,6.4523,0,0,0,25,24.4462v2.6017a53.17,53.17,0,0,0-7.09.1963l-.0005,0-.0023,0-.0031,0-.0008,0a53.7,53.7,0,0,0-10.2057,1.946c-3.76.994-6.0161,5.2379-3.87,8.5855A6.4523,6.4523,0,0,0,7,40.4462v7.7574A4.8021,4.8021,0,0,0,11.7964,53H34.2036A4.8021,4.8021,0,0,0,39,48.2036V40.452a6.3519,6.3519,0,0,0,3.1416-2.6263l.09-.1377A5.7606,5.7606,0,0,0,42.5723,37h9.6313A4.8021,4.8021,0,0,0,57,32.2036V24.452a6.3519,6.3519,0,0,0,3.1416-2.6263l.09-.1377C62.2753,18.3287,60.0271,14.1831,56.3027,13.1909ZM23.5522,20.7637c-.01-.0176-.05-.0747-.061-.0913-1.3589-2.2845.2733-4.8879,2.7705-5.563A51.6451,51.6451,0,0,1,35,13.3477v8.2172c-2.3281.2639-4.5448,1.09-6.8317,1.4078A5.0472,5.0472,0,0,1,23.5522,20.7637ZM27,27.1558V24.9525c2.7391.2448,5.2772-1.1086,8-1.3587v4.7495a57.098,57.098,0,0,0-6.903-1.0984l-.0008,0-.0031,0-.0023,0-.0005,0C27.7274,27.211,27.3641,27.18,27,27.1558ZM5.5522,36.7637c-.01-.0176-.05-.0747-.061-.0913-1.3589-2.2845.2733-4.8879,2.77-5.563A51.6451,51.6451,0,0,1,17,29.3477v8.2172a45.151,45.151,0,0,0-5.5479,1.2041h0A5.2826,5.2826,0,0,1,5.5522,36.7637ZM9,48.2036V40.9525c2.7391.2453,5.2771-1.1089,8-1.3587V51H11.7964A2.8,2.8,0,0,1,9,48.2036Zm10-9.7578V29.1567a50.7043,50.7043,0,0,1,8,.0136V51H19Zm18,9.7578A2.8,2.8,0,0,1,34.2036,51H29V39.5938c2.723.25,5.2612,1.6024,8,1.36Zm3.4478-11.44a5.2774,5.2774,0,0,1-5.9,2.0053h0A45.1365,45.1365,0,0,0,29,37.5649V29.3578a52.1009,52.1009,0,0,1,6.7545,1.2212l.0023.0011c1.4377.3769,3.0344.6485,4.1057,1.7612a3.5484,3.5484,0,0,1,.6761,4.2832Zm2.5479-1.7894c.0684-3.3268-2.9534-5.6188-5.9957-6.1418V13.1567a51.14,51.14,0,0,1,8,0V35H42.9976C42.9977,34.9913,42.9956,34.983,42.9957,34.9743ZM55,32.2036A2.8,2.8,0,0,1,52.2036,35H47V23.5938c2.723.25,5.2612,1.6024,8,1.36Zm3.5386-11.5791-.0908.1392a5.28,5.28,0,0,1-5.9,2.0053h0A45.1365,45.1365,0,0,0,47,21.5649V13.3477a51.6451,51.6451,0,0,1,8.7383,1.7617C58.2111,15.7643,59.8542,18.3857,58.5386,20.6245Z"/></svg>