<?xml version="1.0" ?><!-- Uploaded to: SVG Repo, www.svgrepo.com, Generator: SVG Repo Mixer Tools -->
<svg fill="#000000" width="800px" height="800px" viewBox="0 0 64 64" data-name="Layer 1" id="Layer_1" xmlns="http://www.w3.org/2000/svg"><path d="M23,28a1,1,0,0,0-1,1v2a1,1,0,0,0,2,0V29A1,1,0,0,0,23,28Z"/><path d="M27.8945,28.5527a1,1,0,0,0-1.789.8946l1,2a1,1,0,0,0,1.789-.8946Z"/><path d="M19.4473,28.1055a1,1,0,0,0-1.3418.4472l-1,2a1,1,0,0,0,1.789.8946l1-2A1,1,0,0,0,19.4473,28.1055Z"/><path d="M41,20a1,1,0,0,0-1,1v2a1,1,0,0,0,2,0V21A1,1,0,0,0,41,20Z"/><path d="M45.8945,20.5527a1,1,0,0,0-1.789.8946l1,2a1,1,0,1,0,1.789-.8946Z"/><path d="M37.4473,20.1055a1,1,0,0,0-1.3418.4472l-1,2a1,1,0,0,0,1.789.8946l1-2A1,1,0,0,0,37.4473,20.1055Z"/><path d="M46.0381,15.8306A1.474,1.474,0,0,1,45,14.4473,3.4515,3.4515,0,0,0,41.5527,11H40.4473A3.4515,3.4515,0,0,0,37,14.4473a1.474,1.474,0,0,1-1.0381,1.3833,21.6113,21.6113,0,0,0-9.013,6.1118A3.4426,3.4426,0,0,0,23.5527,19H22.4473A3.4515,3.4515,0,0,0,19,22.4473a1.474,1.474,0,0,1-1.0381,1.3833C9.1445,26.7441,3,36.4033,3,43.25,3,52.2466,13.3232,53,23,53c9.0125,0,18.5814-.6571,19.8532-8.015C51.7969,44.8726,61,43.8383,61,35.25,61,28.4033,54.8555,18.7441,46.0381,15.8306ZM23,51C11.8877,51,5,49.7036,5,43.25c0-6.1509,5.8115-14.95,13.5889-17.52A3.4706,3.4706,0,0,0,21,22.4473,1.4491,1.4491,0,0,1,22.4473,21h1.1054A1.4491,1.4491,0,0,1,25,22.4473a3.42,3.42,0,0,0,1.2107,2.5942,3.5374,3.5374,0,0,0,1.2.6885c7.93,2.6929,13.8722,11.588,13.5537,18.0264,0,.0094-.0177.1742-.0125.1784C40.4625,49.7841,33.699,51,23,51Zm19.9971-8.0176C42.38,34.46,35.959,26.6232,27.9744,23.7983A19.8486,19.8486,0,0,1,36.5889,17.73,3.4706,3.4706,0,0,0,39,14.4473,1.4491,1.4491,0,0,1,40.4473,13h1.1054A1.4491,1.4491,0,0,1,43,14.4473,3.4706,3.4706,0,0,0,45.4111,17.73C53.1885,20.3,59,29.0991,59,35.25,59,41.3906,52.9072,42.83,42.9971,42.9824Z"/></svg>